<svg width="170" height="132" viewBox="0 0 170 132" fill="none" xmlns="http://www.w3.org/2000/svg">
<path d="M93.8684 78.0835C84.1694 75.0299 76.2116 71.2445 68.8715 67.9639C72.2717 63.9378 75.8957 59.3794 79.7388 54.2069C101.255 25.2448 122.068 35.9494 122.266 35.9293L129.045 2.62622C129.045 2.62622 99.9929 11.6333 76.4536 49.9545C72.6261 56.1855 68.9185 61.6475 65.391 66.4332C56.0457 62.4101 47.443 59.5811 37.0963 60.685L30.3389 92.386L43.3188 61.3275C47.8388 62.1719 54.7584 64.0992 63.8717 68.4697C46.4846 91.4461 33.8649 97.675 33.8649 97.6756C33.8649 97.6756 45.7799 94.6836 67.0778 70.0642C72.1741 72.6868 77.8777 76.0375 84.1627 80.3244C114.394 100.946 132.742 92.9344 132.742 92.9344L140.057 57.8413C140.057 57.8416 117.758 85.6043 93.8684 78.0835Z" fill="white"/>
<path d="M5.64253 110.553H9.49692L6.05577 126.734H13.5976L12.9381 129.761H1.56931L5.64253 110.553Z" fill="white"/>
<path d="M26.3185 113.251C29.0982 113.251 30.4192 115.395 30.4192 117.955C30.4192 121.781 27.9705 127.062 23.5653 127.062C20.784 127.062 19.5161 124.834 19.5161 122.332C19.5164 118.451 21.8311 113.251 26.3185 113.251ZM26.4277 110.225C23.2906 110.225 20.6179 111.405 18.527 113.801C16.5728 116.083 15.4988 119.056 15.4988 122.109C15.4988 126.677 18.335 130.089 23.0696 130.089C26.2901 130.089 29.209 129.099 31.2166 126.872C33.2816 124.559 34.4402 121.506 34.4402 118.368C34.4399 113.251 31.6296 110.225 26.4277 110.225Z" fill="white"/>
<path d="M39.8352 110.553H44.7059L48.8094 125.137H48.864L52.0012 110.553H55.6373L51.4793 129.761H46.5237L42.5033 115.04H42.4502L39.3945 129.761H35.7055L39.8352 110.553Z" fill="white"/>
<path d="M73.9159 114.627C72.4304 113.664 70.584 113.251 68.5764 113.251C63.8961 113.251 60.9485 116.909 60.9485 121.449C60.9485 124.559 63.0965 127.062 66.374 127.062C67.253 127.062 67.8308 127.062 68.2724 126.872L69.3449 121.781H65.2729L65.9037 118.755H73.6952L71.4926 129.236C70.3658 129.703 68.2162 130.089 66.3453 130.089C60.7019 130.089 56.9293 127.503 56.9293 121.559C56.9293 114.543 61.5274 110.225 68.4644 110.225C70.6124 110.225 72.8693 110.525 74.8794 111.297L73.9159 114.627Z" fill="white"/>
<path d="M77.7138 110.553H81.5682L83.3576 125.496H83.4134L91.3972 110.553H95.5809L84.8442 129.761H80.2476L77.7138 110.553Z" fill="white"/>
<path d="M102.909 113.965H103.019L104.228 122.332H98.2822L102.909 113.965ZM89.8587 129.761H94.1257L96.5759 125.359H104.753L105.412 129.761H109.266L105.771 110.553H101.504L89.8587 129.761Z" fill="white"/>
<path d="M115.791 110.553H126.39L125.731 113.579H119.011L117.993 118.313H124.408L123.803 121.34H117.36L115.599 129.761H111.745L115.791 110.553Z" fill="white"/>
<path d="M130.272 110.553H134.29L130.244 129.761H126.226L130.272 110.553Z" fill="white"/>
<path d="M147.725 114.24C146.598 113.664 145.138 113.251 143.733 113.251C142.356 113.251 140.513 113.801 140.513 115.453C140.513 118.533 147.066 118.343 147.066 123.679C147.066 128.386 143.378 130.09 139.164 130.09C137.318 130.09 135.419 129.65 133.685 129.016L134.677 125.743C136.162 126.431 137.731 127.063 139.382 127.063C141.23 127.063 143.045 126.127 143.045 124.063C143.045 120.597 136.492 121.147 136.492 116.029C136.492 111.985 139.962 110.225 143.653 110.225C145.33 110.225 147.066 110.443 148.633 111.076L147.725 114.24Z" fill="white"/>
<path d="M157.552 110.553L155.929 118.092H155.984L163.612 110.553H168.98L159.262 119.305L165.456 129.761H160.859L155.517 119.993L153.424 129.761H149.569L153.698 110.552H157.552V110.553Z" fill="white"/>
<path d="M138.591 2.52124C140.757 2.52124 142.486 4.28262 142.486 6.48389C142.486 8.72055 140.757 10.4636 138.574 10.4636C136.407 10.4636 134.643 8.72055 134.643 6.48389C134.643 4.28262 136.407 2.52124 138.574 2.52124H138.591ZM138.574 3.13836C136.828 3.13836 135.402 4.63496 135.402 6.48389C135.402 8.36852 136.828 9.84773 138.591 9.84773C140.352 9.86542 141.763 8.36852 141.763 6.50189C141.763 4.63496 140.352 3.13836 138.591 3.13836H138.574ZM137.831 8.79132H137.129V4.37078C137.498 4.3177 137.851 4.26554 138.379 4.26554C139.047 4.26554 139.489 4.40586 139.753 4.59957C140.016 4.79359 140.157 5.09346 140.157 5.51504C140.157 6.09617 139.77 6.44881 139.294 6.58975V6.62513C139.684 6.69499 139.948 7.04763 140.033 7.69923C140.14 8.3856 140.246 8.65008 140.317 8.79132H139.578C139.471 8.65008 139.365 8.24528 139.277 7.66415C139.17 7.10041 138.89 6.8887 138.325 6.8887H137.832V8.79132H137.831ZM137.831 6.34357H138.345C138.924 6.34357 139.417 6.13217 139.417 5.58612C139.417 5.1984 139.136 4.81067 138.345 4.81067C138.116 4.81067 137.955 4.82867 137.831 4.84606V6.34357Z" fill="white"/>
</svg>
