<svg width="103" height="80" viewBox="0 0 103 80" fill="none" xmlns="http://www.w3.org/2000/svg">
<g clip-path="url(#clip0)">
<path d="M56.8625 47.3233C50.9871 45.4727 46.1665 43.1785 41.7201 41.1903C43.7799 38.7502 45.9752 35.9875 48.3032 32.8527C61.3372 15.2999 73.945 21.7875 74.0649 21.7753L78.1712 1.59165C78.1712 1.59165 60.5725 7.05046 46.3131 30.2754C43.9945 34.0518 41.7486 37.3621 39.6117 40.2625C33.9507 37.8243 28.7394 36.1097 22.4718 36.7788L18.3783 55.9915L26.2411 37.1682C28.9792 37.6799 33.1709 38.848 38.6914 41.4968C28.1589 55.4219 20.5142 59.197 20.5142 59.1973C20.5142 59.1973 27.732 57.384 40.6336 42.4632C43.7207 44.0526 47.1758 46.0833 50.9831 48.6815C69.2963 61.1793 80.4106 56.3239 80.4106 56.3239L84.842 35.0554C84.8419 35.0555 71.3341 51.8814 56.8625 47.3233Z" fill="#0094C2"/>
<path d="M3.41806 67.0017H5.75293L3.66839 76.8086H8.237L7.83747 78.6432H0.950638L3.41806 67.0017Z" fill="#77787B"/>
<path d="M15.9429 68.6372C17.6268 68.6372 18.4269 69.9365 18.4269 71.4881C18.4269 73.8068 16.9436 77.0075 14.2751 77.0075C12.5902 77.0075 11.8222 75.657 11.8222 74.1404C11.8224 71.7885 13.2246 68.6372 15.9429 68.6372ZM16.0091 66.803C14.1087 66.803 12.4897 67.5183 11.223 68.9705C10.0393 70.3536 9.38866 72.1551 9.38866 74.0058C9.38866 76.7742 11.1068 78.8421 13.9748 78.8421C15.9257 78.8421 17.6939 78.242 18.91 76.8921C20.1609 75.4904 20.8628 73.6401 20.8628 71.738C20.8626 68.6372 19.1602 66.803 16.0091 66.803Z" fill="#77787B"/>
<path d="M24.1309 67.0017H27.0814L29.5671 75.8405H29.6002L31.5006 67.0017H33.7033L31.1845 78.6432H28.1826L25.7471 69.7212H25.715L23.8639 78.6432H21.6293L24.1309 67.0017Z" fill="#77787B"/>
<path d="M44.7759 69.4712C43.876 68.8875 42.7575 68.6372 41.5414 68.6372C38.7062 68.6372 36.9206 70.8539 36.9206 73.6055C36.9206 75.4904 38.2218 77.0075 40.2073 77.0075C40.7397 77.0075 41.0897 77.0075 41.3572 76.8921L42.0069 73.8068H39.5402L39.9224 71.9728H44.6422L43.3079 78.3252C42.6253 78.608 41.3232 78.8421 40.1899 78.8421C36.7712 78.8421 34.4859 77.2743 34.4859 73.6723C34.4859 69.4198 37.2713 66.803 41.4735 66.803C42.7747 66.803 44.1419 66.9849 45.3595 67.4527L44.7759 69.4712Z" fill="#77787B"/>
<path d="M47.0765 67.0017H49.4114L50.4954 76.0581H50.5292L55.3655 67.0017H57.8998L51.3959 78.6432H48.6114L47.0765 67.0017Z" fill="#77787B"/>
<path d="M62.3392 69.07H62.4054L63.1381 74.1406H59.5362L62.3392 69.07ZM54.4335 78.6432H57.0183L58.5026 75.9749H63.4561L63.8554 78.6432H66.1901L64.0727 67.0017H61.4878L54.4335 78.6432Z" fill="#77787B"/>
<path d="M70.1425 67.0017H76.5631L76.1635 68.8361H72.0932L71.4764 71.7051H75.3624L74.996 73.5395H71.093L70.026 78.6432H67.6913L70.1425 67.0017Z" fill="#77787B"/>
<path d="M78.9147 67.0017H81.3485L78.8974 78.6432H76.4634L78.9147 67.0017Z" fill="#77787B"/>
<path d="M89.487 69.2366C88.8042 68.8873 87.92 68.6372 87.0689 68.6372C86.2349 68.6372 85.1181 68.9705 85.1181 69.9713C85.1181 71.838 89.0877 71.7227 89.0877 74.957C89.0877 77.8093 86.8536 78.8423 84.3013 78.8423C83.1829 78.8423 82.0328 78.5757 80.9819 78.1915L81.5828 76.2077C82.4828 76.6248 83.4331 77.0077 84.4335 77.0077C85.5524 77.0077 86.652 76.4407 86.652 75.1898C86.652 73.0889 82.6826 73.4221 82.6826 70.3207C82.6826 67.8694 84.7846 66.8032 87.0201 66.8032C88.0364 66.8032 89.0877 66.9352 90.0374 67.319L89.487 69.2366Z" fill="#77787B"/>
<path d="M95.4398 67.0017L94.457 71.5711H94.4903L99.1108 67.0017H102.363L96.4757 72.306L100.228 78.643H97.4432L94.207 72.7229L92.9391 78.643H90.6042L93.1055 67.0016H95.4398V67.0017Z" fill="#77787B"/>
<path d="M83.9541 1.52805C85.266 1.52805 86.3133 2.59555 86.3133 3.92965C86.3133 5.2852 85.266 6.34162 83.9439 6.34162C82.6309 6.34162 81.5622 5.2852 81.5622 3.92965C81.5622 2.59555 82.6309 1.52805 83.9439 1.52805H83.9541ZM83.9437 1.90206C82.8858 1.90206 82.0224 2.80909 82.0224 3.92965C82.0224 5.07185 82.8858 5.96834 83.9539 5.96834C85.0206 5.97906 85.8753 5.07185 85.8753 3.94056C85.8753 2.80909 85.0206 1.90206 83.9539 1.90206H83.9437ZM83.4939 5.3281H83.0681V2.64898C83.2922 2.61681 83.5059 2.5852 83.8258 2.5852C84.2303 2.5852 84.4978 2.67024 84.6577 2.78764C84.8175 2.90523 84.9025 3.08697 84.9025 3.34247C84.9025 3.69467 84.6681 3.90839 84.3798 3.99381V4.01525C84.6161 4.05759 84.776 4.27131 84.8278 4.66622C84.8923 5.0822 84.9565 5.2425 84.9997 5.3281H84.5518C84.4873 5.2425 84.4231 4.99716 84.3695 4.64496C84.305 4.3033 84.1349 4.17499 83.7927 4.17499H83.4941V5.3281H83.4939ZM83.4939 3.84461H83.8049C84.1556 3.84461 84.4545 3.71649 84.4545 3.38555C84.4545 3.15056 84.2843 2.91558 83.8049 2.91558C83.666 2.91558 83.5686 2.92649 83.4939 2.93703V3.84461Z" fill="#0094C2"/>
</g>
<defs>
<clipPath id="clip0">
<rect width="102.981" height="80" fill="white"/>
</clipPath>
</defs>
</svg>
